<svg id="visual" viewBox="0 0 960 540" width="960" height="540" xmlns="http://www.w3.org/2000/svg" version="1.1"><rect x="0" y="0" width="960" height="540" fill="#2A3940"></rect><path d="M0 263L22.8 262.8C45.7 262.7 91.3 262.3 137 270.7C182.7 279 228.3 296 274 296.2C319.7 296.3 365.3 279.7 411.2 286.7C457 293.7 503 324.3 548.8 341.7C594.7 359 640.3 363 686 352.8C731.7 342.7 777.3 318.3 823 321.3C868.7 324.3 914.3 354.7 937.2 369.8L960 385L960 0L937.2 0C914.3 0 868.7 0 823 0C777.3 0 731.7 0 686 0C640.3 0 594.7 0 548.8 0C503 0 457 0 411.2 0C365.3 0 319.7 0 274 0C228.3 0 182.7 0 137 0C91.3 0 45.7 0 22.8 0L0 0Z" fill="#6bc5f2"></path><path d="M0 301L22.8 295.3C45.7 289.7 91.3 278.3 137 276C182.7 273.7 228.3 280.3 274 278.2C319.7 276 365.3 265 411.2 267.8C457 270.7 503 287.3 548.8 295.3C594.7 303.3 640.3 302.7 686 296.5C731.7 290.3 777.3 278.7 823 280.8C868.7 283 914.3 299 937.2 307L960 315L960 0L937.2 0C914.3 0 868.7 0 823 0C777.3 0 731.7 0 686 0C640.3 0 594.7 0 548.8 0C503 0 457 0 411.2 0C365.3 0 319.7 0 274 0C228.3 0 182.7 0 137 0C91.3 0 45.7 0 22.8 0L0 0Z" fill="#65b1d7"></path><path d="M0 226L22.8 223C45.7 220 91.3 214 137 223.3C182.7 232.7 228.3 257.3 274 254.5C319.7 251.7 365.3 221.3 411.2 219.8C457 218.3 503 245.7 548.8 243.7C594.7 241.7 640.3 210.3 686 200.8C731.7 191.3 777.3 203.7 823 223C868.7 242.3 914.3 268.7 937.2 281.8L960 295L960 0L937.2 0C914.3 0 868.7 0 823 0C777.3 0 731.7 0 686 0C640.3 0 594.7 0 548.8 0C503 0 457 0 411.2 0C365.3 0 319.7 0 274 0C228.3 0 182.7 0 137 0C91.3 0 45.7 0 22.8 0L0 0Z" fill="#5f9dbc"></path><path d="M0 225L22.8 227.3C45.7 229.7 91.3 234.3 137 230.5C182.7 226.7 228.3 214.3 274 208.8C319.7 203.3 365.3 204.7 411.2 205C457 205.3 503 204.7 548.8 194.3C594.7 184 640.3 164 686 156.8C731.7 149.7 777.3 155.3 823 168.2C868.7 181 914.3 201 937.2 211L960 221L960 0L937.2 0C914.3 0 868.7 0 823 0C777.3 0 731.7 0 686 0C640.3 0 594.7 0 548.8 0C503 0 457 0 411.2 0C365.3 0 319.7 0 274 0C228.3 0 182.7 0 137 0C91.3 0 45.7 0 22.8 0L0 0Z" fill="#598aa2"></path><path d="M0 125L22.8 128.3C45.7 131.7 91.3 138.3 137 134.5C182.7 130.7 228.3 116.3 274 122.5C319.7 128.7 365.3 155.3 411.2 167.2C457 179 503 176 548.8 170.2C594.7 164.3 640.3 155.7 686 153.8C731.7 152 777.3 157 823 153.3C868.7 149.7 914.3 137.3 937.2 131.2L960 125L960 0L937.2 0C914.3 0 868.7 0 823 0C777.3 0 731.7 0 686 0C640.3 0 594.7 0 548.8 0C503 0 457 0 411.2 0C365.3 0 319.7 0 274 0C228.3 0 182.7 0 137 0C91.3 0 45.7 0 22.8 0L0 0Z" fill="#537789"></path><path d="M0 71L22.8 79C45.7 87 91.3 103 137 102.3C182.7 101.7 228.3 84.3 274 83.3C319.7 82.3 365.3 97.7 411.2 101.7C457 105.7 503 98.3 548.8 89.2C594.7 80 640.3 69 686 70.2C731.7 71.3 777.3 84.7 823 85.2C868.7 85.7 914.3 73.3 937.2 67.2L960 61L960 0L937.2 0C914.3 0 868.7 0 823 0C777.3 0 731.7 0 686 0C640.3 0 594.7 0 548.8 0C503 0 457 0 411.2 0C365.3 0 319.7 0 274 0C228.3 0 182.7 0 137 0C91.3 0 45.7 0 22.8 0L0 0Z" fill="#4c6470"></path><path d="M0 38L22.8 42.2C45.7 46.3 91.3 54.7 137 53.2C182.7 51.7 228.3 40.3 274 34.7C319.7 29 365.3 29 411.2 39C457 49 503 69 548.8 69.3C594.7 69.7 640.3 50.3 686 42.8C731.7 35.3 777.3 39.7 823 44C868.7 48.3 914.3 52.7 937.2 54.8L960 57L960 0L937.2 0C914.3 0 868.7 0 823 0C777.3 0 731.7 0 686 0C640.3 0 594.7 0 548.8 0C503 0 457 0 411.2 0C365.3 0 319.7 0 274 0C228.3 0 182.7 0 137 0C91.3 0 45.7 0 22.8 0L0 0Z" fill="#445259"></path></svg>