<?xml version="1.0" standalone="no"?>
<!DOCTYPE svg PUBLIC "-//W3C//DTD SVG 20010904//EN"
 "http://www.w3.org/TR/2001/REC-SVG-20010904/DTD/svg10.dtd">
<svg version="1.0" xmlns="http://www.w3.org/2000/svg"
 width="1024.000000pt" height="1024.000000pt" viewBox="0 0 1024.000000 1024.000000"
 preserveAspectRatio="xMidYMid meet">

<g transform="translate(0.000000,1024.000000) scale(0.100000,-0.100000)"
fill="#000000" stroke="none">
<path d="M4959 9450 c-609 -38 -1191 -194 -1754 -470 -561 -275 -1027 -639
-1421 -1110 -299 -357 -544 -763 -706 -1169 -152 -381 -261 -819 -293 -1171
-3 -36 -10 -101 -15 -145 -18 -154 -22 -439 -11 -630 40 -664 184 -1219 457
-1765 359 -718 922 -1332 1605 -1751 579 -355 1164 -564 1829 -653 539 -73
1107 -35 1660 110 1119 294 2064 980 2669 1939 97 154 121 197 216 390 224
458 351 903 422 1485 25 202 24 766 -1 990 -63 566 -206 1044 -462 1550 -424
839 -1130 1535 -1979 1950 -426 208 -806 327 -1315 409 -223 36 -661 56 -901
41z m-141 -450 l64 -30 61 16 c135 36 584 32 837 -6 74 -11 153 -23 174 -26
48 -8 86 -46 86 -86 0 -37 -37 -75 -82 -83 -33 -6 -35 -9 -47 -66 -12 -58 -11
-61 14 -90 33 -40 33 -82 -1 -116 -25 -24 -29 -25 -97 -19 -40 4 -117 13 -172
22 -66 10 -212 17 -430 21 l-330 5 -60 -30 c-33 -16 -83 -33 -111 -37 -130
-17 -264 68 -299 189 -71 245 163 445 393 336z m-638 -135 c47 -24 59 -96 22
-128 -10 -8 -118 -49 -241 -90 -123 -42 -232 -84 -242 -93 -27 -24 -24 -70 6
-99 13 -14 31 -25 39 -25 8 0 109 31 223 70 114 38 218 70 229 70 12 0 34 -12
49 -27 23 -24 26 -34 22 -68 -3 -21 -13 -45 -23 -52 -9 -6 -89 -35 -178 -64
-88 -28 -217 -73 -285 -100 -68 -27 -131 -49 -141 -49 -10 0 -33 12 -50 27
-30 25 -32 30 -27 76 4 42 0 56 -27 97 -17 27 -38 49 -47 49 -8 1 -55 -20
-103 -45 -122 -64 -138 -67 -178 -40 -27 18 -34 29 -36 64 -3 34 1 46 20 63
29 26 349 177 476 225 103 39 442 153 455 154 4 0 21 -7 37 -15z m2335 -19
c124 -58 188 -193 151 -318 -43 -147 -190 -234 -329 -194 -80 23 -135 70 -175
146 -31 59 -34 71 -30 130 11 155 119 259 268 260 48 0 78 -6 115 -24z m516
-242 c139 -70 435 -257 586 -371 198 -148 483 -413 648 -603 306 -352 525
-710 689 -1121 125 -317 137 -391 73 -486 -64 -94 -183 -122 -293 -68 -81 40
-80 38 -198 341 -186 477 -424 834 -815 1224 -233 232 -427 382 -719 557 -177
106 -224 148 -242 215 -21 77 9 172 69 216 17 12 31 32 31 43 0 11 13 34 29
50 37 37 75 38 142 3z m-4004 -276 c23 -11 53 -64 53 -93 0 -37 52 -105 80
-105 9 0 47 18 84 41 89 54 126 60 160 26 25 -26 33 -66 20 -101 -3 -9 -58
-47 -122 -86 -263 -160 -450 -309 -677 -542 -234 -239 -403 -458 -549 -712
-111 -192 -159 -300 -289 -641 -49 -128 -123 -187 -235 -187 -71 -1 -118 18
-166 68 -52 54 -73 128 -56 203 15 69 96 297 145 411 88 205 261 508 399 699
265 364 632 733 958 964 108 76 136 84 195 55z m2323 -663 c141 -16 245 -41
356 -85 428 -171 736 -518 851 -961 26 -103 26 -107 32 -554 l6 -450 90 -6
c168 -12 308 -64 423 -157 152 -122 248 -274 298 -472 18 -71 19 -123 19 -995
l0 -920 -23 -85 c-62 -234 -219 -430 -424 -529 -74 -36 -132 -56 -205 -71 -99
-20 -131 -20 -1566 -20 -1552 0 -1546 0 -1684 46 -205 68 -375 220 -469 419
-48 102 -68 173 -83 295 -14 108 -14 1610 -1 1735 24 228 93 378 245 531 79
80 103 97 195 142 116 57 217 82 330 82 l70 0 0 424 c0 339 3 440 15 507 50
268 184 518 385 719 262 263 563 390 995 419 11 0 76 -6 145 -14z m-2460 -912
c35 -73 70 -135 77 -138 8 -2 68 -14 135 -25 148 -26 188 -41 188 -71 0 -15
-37 -60 -112 -135 l-112 -114 12 -77 c23 -158 25 -193 12 -208 -20 -24 -49
-18 -160 35 -58 28 -117 50 -132 50 -15 0 -76 -22 -134 -50 -58 -27 -117 -50
-129 -50 -39 0 -44 39 -26 173 9 65 14 123 10 129 -4 6 -55 59 -113 118 -106
107 -122 134 -91 160 8 6 76 23 152 36 75 13 144 26 154 29 9 3 40 56 69 120
67 146 75 157 108 153 24 -3 35 -19 92 -135z m4783 119 c9 -10 38 -66 65 -124
27 -59 54 -113 61 -121 6 -9 35 -18 64 -22 93 -13 240 -45 254 -56 30 -25 12
-54 -99 -166 l-111 -112 15 -123 c17 -140 11 -178 -27 -178 -13 0 -70 23 -126
50 -56 28 -114 50 -128 50 -14 0 -73 -23 -130 -50 -170 -82 -184 -71 -157 120
11 80 14 126 7 137 -5 10 -57 65 -115 122 -103 102 -119 128 -93 149 13 11
111 32 240 53 89 14 87 12 152 159 21 47 45 95 53 108 17 27 53 29 75 4z
m-6151 -1434 c9 -7 44 -70 77 -140 l61 -127 52 -10 c240 -45 263 -51 275 -67
7 -10 13 -23 13 -28 0 -6 -52 -62 -116 -124 l-117 -113 11 -72 c38 -243 27
-261 -113 -194 -39 19 -91 42 -117 52 l-48 18 -132 -58 -132 -58 -18 23 c-22
27 -22 29 -3 150 23 148 29 132 -100 256 -63 61 -115 118 -115 127 0 27 39 44
140 61 206 36 194 32 223 84 14 26 36 75 50 109 29 72 63 123 81 123 7 0 20
-6 28 -12z m7402 -7 c10 -10 38 -66 64 -123 26 -56 52 -111 57 -120 8 -13 47
-25 150 -44 77 -14 150 -32 163 -40 40 -26 27 -52 -84 -164 -58 -59 -106 -116
-106 -126 -1 -10 5 -72 12 -136 19 -172 8 -179 -168 -98 -60 28 -115 50 -121
50 -7 0 -60 -22 -119 -49 -145 -66 -148 -67 -167 -38 -14 22 -14 36 2 157 l17
132 -117 115 c-64 63 -117 120 -117 128 0 25 42 42 140 59 52 9 119 22 149 27
l53 11 60 126 c33 70 64 133 70 140 15 18 42 15 62 -7z m-7359 -1142 c58 -16
121 -64 149 -112 13 -23 45 -112 71 -197 182 -603 447 -1051 875 -1480 269
-270 550 -470 921 -655 395 -198 832 -325 1272 -371 l159 -16 61 28 c87 40
180 40 256 0 50 -26 60 -28 130 -22 659 57 1304 290 1821 659 241 172 547 460
724 682 82 103 254 352 288 420 184 355 211 424 342 843 33 106 70 160 133
194 67 35 109 41 172 23 102 -31 173 -124 172 -228 0 -81 -119 -458 -211 -667
-149 -340 -334 -639 -594 -960 -100 -124 -412 -430 -551 -541 -368 -295 -742
-505 -1177 -663 -307 -111 -733 -206 -1038 -231 -41 -3 -93 -8 -115 -9 -22 -2
-62 -17 -90 -32 -43 -25 -61 -29 -126 -29 -65 0 -84 4 -135 31 -49 26 -75 32
-154 38 -1650 116 -3062 1206 -3553 2741 -71 224 -90 307 -83 358 13 87 95
177 178 197 47 11 58 11 103 -1z"/>
<path d="M5084 8824 c-20 -19 -24 -31 -19 -52 14 -56 28 -62 154 -62 114 -1
325 -13 428 -26 47 -6 54 -4 78 20 39 39 32 85 -15 108 -45 21 -240 38 -446
38 -153 0 -155 0 -180 -26z"/>
<path d="M6957 8412 c-30 -33 -38 -69 -19 -91 24 -27 192 -131 212 -131 18 0
41 22 59 57 15 30 -1 62 -47 92 -140 93 -175 106 -205 73z"/>
<path d="M7346 8155 c-51 -55 -44 -65 149 -215 101 -78 131 -86 164 -44 43 54
25 80 -141 207 -104 81 -136 91 -172 52z"/>
<path d="M7808 7809 c-23 -9 -48 -50 -48 -81 0 -5 64 -75 141 -156 389 -405
641 -807 829 -1323 22 -63 50 -122 62 -131 44 -38 108 -11 108 46 0 33 -90
282 -154 426 -178 399 -460 805 -779 1118 -62 61 -118 112 -123 111 -5 0 -21
-5 -36 -10z"/>
<path d="M2851 8079 c-214 -155 -512 -443 -700 -678 -268 -335 -461 -669 -599
-1041 -73 -196 -77 -235 -27 -258 50 -23 92 12 120 98 81 254 280 654 421 849
97 133 193 261 234 311 78 95 442 452 530 520 174 135 181 145 131 199 -36 39
-57 39 -110 0z"/>
<path d="M5053 7186 c-190 -36 -339 -110 -477 -237 -123 -113 -220 -274 -262
-436 -25 -96 -26 -105 -27 -503 l-2 -405 918 -3 918 -2 -3 417 c-4 396 -5 422
-27 497 -93 327 -348 579 -666 657 -104 26 -278 33 -372 15z"/>
<path d="M5113 4940 c-161 -29 -306 -138 -378 -283 -75 -154 -68 -336 20 -482
65 -107 170 -195 271 -225 l41 -12 7 -76 c3 -41 6 -134 6 -207 l0 -132 -196
-6 c-153 -5 -201 -9 -220 -22 -81 -53 -74 -178 13 -219 27 -13 69 -16 216 -16
l182 0 -3 -134 c-2 -79 1 -150 8 -176 28 -105 143 -129 220 -46 24 27 25 33
28 191 l3 163 188 4 c158 2 191 6 214 21 81 53 81 162 0 214 -24 16 -53 18
-213 18 l-185 0 -3 213 c-2 177 0 212 12 212 7 0 50 18 94 40 257 129 356 447
217 695 -108 193 -331 302 -542 265z"/>
<path d="M1465 4100 c-17 -18 -17 -26 -6 -85 15 -84 101 -348 158 -490 298
-735 836 -1371 1507 -1782 426 -261 833 -422 1306 -517 146 -29 401 -66 460
-66 12 0 16 13 16 58 0 31 2 64 4 72 4 11 -4 16 -30 18 -19 2 -109 14 -200 27
-575 82 -1124 292 -1610 618 -582 390 -1046 956 -1310 1599 -49 119 -151 420
-165 488 -15 73 -88 106 -130 60z"/>
<path d="M8833 4102 c-14 -11 -31 -51 -52 -122 -76 -265 -155 -468 -267 -687
-372 -727 -1016 -1331 -1784 -1673 -327 -146 -744 -260 -1095 -300 -142 -16
-132 -9 -131 -90 1 -59 4 -70 18 -70 40 0 331 41 419 59 805 166 1494 538
2045 1103 372 381 650 819 827 1298 42 113 122 370 132 420 12 65 -59 104
-112 62z"/>
</g>
</svg>
